<svg width="89" height="50" viewBox="0 0 89 50" fill="none" xmlns="http://www.w3.org/2000/svg">
<path d="M47.8467 15.5149V13.2183C47.8467 11.75 47.0868 10.9594 45.643 10.9594C45.111 10.9594 44.1613 11.1853 43.7813 11.4865C43.6672 11.2982 43.5153 11.0723 43.2494 10.9594L42.3756 11.75C42.7175 11.9759 42.7175 12.3901 42.7175 12.5783V19.8822H44.1234V17.5479C44.5412 17.7739 45.2251 17.8491 45.5289 17.8491C46.8208 17.8491 47.8467 17.0209 47.8467 15.5149ZM46.4408 15.6655C46.4408 16.2679 45.871 16.6067 45.3391 16.6067C44.883 16.6067 44.3893 16.4185 44.1234 16.2302V12.7665C44.1234 12.7289 44.1234 12.7289 44.1234 12.6536C44.4272 12.3147 45.0731 12.1641 45.4149 12.1641C45.9468 12.1641 46.4408 12.5406 46.4408 13.143V15.6655Z" fill="#6D6C6A"/>
<path d="M42.3333 9.03759L40.7756 9.03759L39.5598 12.9907C39.5219 13.066 39.5219 13.1413 39.4839 13.2166C39.4839 13.2919 39.4459 13.3672 39.4459 13.4049C39.4459 13.3672 39.4079 13.2919 39.4079 13.2166C39.3699 13.1413 39.3699 13.066 39.3319 12.9907L37.5462 8.99994H35.9505L38.8 15.212L38.61 15.6638C38.3821 16.1532 37.7742 16.718 36.7104 16.7556L36.9003 17.8474C38.496 17.8851 39.5219 17.1698 39.9398 16.0403L42.3333 9.03759Z" fill="#6D6C6A"/>
<path d="M63.7968 9.03759L62.239 9.03759L61.0232 12.9907C60.9853 13.066 60.9853 13.1413 60.9471 13.2166C60.9092 13.2919 60.9092 13.3672 60.9092 13.4049C60.9092 13.4425 60.9092 13.4802 60.9092 13.4802C60.9092 13.4802 60.9092 13.4425 60.8713 13.4049C60.8713 13.3672 60.8334 13.2919 60.8334 13.2166C60.7952 13.1413 60.7952 13.066 60.7573 12.9907L58.9717 8.99994H57.376L60.2253 15.212L60.0355 15.6638C59.8075 16.1532 59.1994 16.718 58.1356 16.7556L58.3258 17.8474C59.8833 17.8851 60.9471 17.1698 61.3271 16.0403L63.7968 9.03759Z" fill="#6D6C6A"/>
<path d="M53.6965 8.99994H52.2148V9.71527H51.3787C50.0493 9.71527 48.7574 10.5435 48.7195 12.0495V14.1579C48.7195 15.5885 49.8212 16.605 51.151 16.605C51.151 16.605 51.9867 16.605 52.1766 16.605V17.6215H53.6586V16.605C53.8484 16.605 54.6842 16.605 54.6842 16.605C56.0518 16.605 57.1539 15.5885 57.1157 14.1579V12.0495C57.1157 10.5059 55.8241 9.71527 54.4561 9.71527L53.6204 9.71527V8.99994H53.6965ZM53.6965 15.325V10.9577L54.4561 10.9953C55.0642 10.9953 55.7101 11.3718 55.7101 12.1248V14.0826C55.7101 14.8355 55.1782 15.325 54.4943 15.325H53.6965ZM52.2148 10.9577V15.325H51.4169C50.7331 15.325 50.2012 14.7979 50.2012 14.0826V12.1248C50.2012 11.3718 50.8468 10.9953 51.4548 10.9953L52.2148 10.9577Z" fill="#6D6C6A"/>
<path d="M10.4178 8.99994L9.99988 10.4306C12.9633 10.4682 13.5712 12.1624 14.863 14.3461L24.5892 30.5728C25.0451 31.4011 25.463 32.1917 25.501 33.0953C25.577 35.1283 22.6515 36.7096 20.4479 36.8225C18.6623 36.9355 17.5225 36.4837 16.2687 35.806L15.5469 36.7849C16.0028 38.6673 17.8264 40.8133 20.296 40.7757C24.5512 40.738 26.7548 37.0861 28.4645 33.9989L31.6179 28.3139L22.4236 12.9907C21.5877 11.5977 22.8795 10.4306 24.4752 10.4306L24.8551 8.99994L10.4178 8.99994Z" fill="#6D6C6A"/>
<path d="M37.1666 24.998L37.4706 24.358L38.2684 22.8144H38.9903V26.2028H38.2684V24.1321H38.2304L37.9265 24.7345L37.1286 26.2028H36.4067V22.8144H37.1286L37.1666 24.998Z" fill="#6D6C6A"/>
<path d="M40.6991 25.2263H40.0912V26.2052H39.3693V23.7957H40.0912V24.6993H40.6991V23.7957H41.421V26.2052H40.6991V25.2263Z" fill="#6D6C6A"/>
<path d="M43.0541 25.7504C43.1678 25.7504 43.2439 25.7504 43.3579 25.7128C43.472 25.7128 43.5478 25.6751 43.6618 25.6375L43.7758 26.0893C43.6618 26.1646 43.5099 26.2022 43.3958 26.2399C43.2818 26.2775 43.1299 26.2775 42.94 26.2775C42.7499 26.2775 42.598 26.2399 42.446 26.2022C42.294 26.1269 42.1801 26.0516 42.1041 25.9387C42.0281 25.8257 41.9521 25.7128 41.9141 25.5622C41.8761 25.4116 41.8381 25.261 41.8381 25.0727C41.8381 24.8845 41.8761 24.6962 41.9141 24.5457C41.9521 24.395 42.0281 24.2445 42.1041 24.1315C42.1801 24.0186 42.332 23.9433 42.446 23.868C42.598 23.7927 42.7499 23.755 42.94 23.755C43.092 23.755 43.2439 23.755 43.3958 23.7927C43.5099 23.8303 43.6239 23.868 43.7379 23.9056L43.6239 24.3951C43.5478 24.3574 43.472 24.3574 43.3579 24.3197C43.2439 24.3197 43.1678 24.2821 43.0541 24.2821C42.9018 24.2821 42.7881 24.3197 42.712 24.4327C42.6359 24.5457 42.598 24.7339 42.598 24.9974C42.598 25.1104 42.598 25.2233 42.6359 25.2986C42.6359 25.3739 42.6741 25.4492 42.712 25.5245C42.7499 25.5998 42.7881 25.6375 42.8639 25.6751C42.9018 25.7128 42.9779 25.7504 43.0541 25.7504Z" fill="#6D6C6A"/>
<path d="M45.2992 26.2052H44.5775V24.3604H43.9694V23.7957H45.9072V24.3604H45.2992V26.2052Z" fill="#6D6C6A"/>
<path d="M47.5375 24.8497L47.1575 25.565L46.8158 26.2427H46.132V23.8708H46.8158V25.2638H46.8537L47.0056 24.925L47.5758 23.8332H48.2596V26.205H47.5758L47.5375 24.8497Z" fill="#6D6C6A"/>
<path d="M49.8181 26.2052H49.0963V24.3604H48.4883V23.7957H50.4261V24.3604H49.8181V26.2052Z" fill="#6D6C6A"/>
<path d="M51.7541 25.4897L51.9439 24.812L52.2481 23.8332H52.9698L51.792 27.2215H51.1081L51.4502 26.1297L51.2222 25.8662L50.5383 23.8332H51.298L51.5639 24.8497L51.7541 25.4897Z" fill="#6D6C6A"/>
<path d="M54.3369 26.2052H53.6148V24.3604H53.0071V23.7957H54.9446V24.3604H54.3369V26.2052Z" fill="#6D6C6A"/>
<path d="M37.0974 31.025V32.1922H36.3755V28.8038H36.9834L37.0974 29.0673L37.3253 28.9167C37.4013 28.8791 37.4393 28.8414 37.5153 28.8038C37.5913 28.7661 37.6293 28.7661 37.7053 28.7661C37.8572 28.7661 38.0092 28.8037 38.0852 28.8791C38.1992 28.9544 38.2751 29.0673 38.3131 29.1802C38.3511 29.2932 38.4271 29.4438 38.4271 29.5944C38.4651 29.745 38.4651 29.8956 38.4651 30.0462C38.4651 30.1968 38.4651 30.3474 38.4271 30.4603C38.3891 30.6109 38.3511 30.7239 38.2751 30.8744C38.1992 30.9874 38.1232 31.1003 38.0092 31.1756C37.8952 31.2509 37.7812 31.2886 37.6293 31.2886C37.5533 31.2886 37.4773 31.2886 37.4013 31.2509C37.3253 31.1756 37.2493 31.1003 37.0974 31.025ZM37.1354 30.6109C37.1734 30.6486 37.2493 30.6862 37.2873 30.6862C37.3253 30.7239 37.4013 30.7239 37.4393 30.7239C37.5153 30.7239 37.5533 30.6862 37.5913 30.6486C37.6293 30.6109 37.6673 30.5356 37.6673 30.4979C37.7053 30.4227 37.7053 30.3474 37.7053 30.2721C37.7053 30.1968 37.7053 30.0838 37.7053 30.0085C37.7053 29.7826 37.6673 29.5944 37.6293 29.4438C37.5913 29.3308 37.5153 29.2555 37.4013 29.2555C37.3633 29.2555 37.2873 29.2556 37.2493 29.2932C37.2113 29.3308 37.1354 29.3685 37.0974 29.4061V30.6109H37.1354Z" fill="#6D6C6A"/>
<path d="M41.0427 31.1756C40.9287 31.2133 40.8527 31.2133 40.7387 31.2509C40.6247 31.2509 40.5487 31.2886 40.4727 31.2886C40.3588 31.2886 40.3208 31.2886 40.2448 31.2509C40.2068 31.2133 40.1688 31.1756 40.1308 31.1003L40.0928 30.9874L39.8269 31.138C39.7509 31.1756 39.7129 31.2133 39.6369 31.2509C39.5609 31.2886 39.5229 31.2886 39.4849 31.2886C39.333 31.2886 39.181 31.2509 39.105 31.2133C39.029 31.1756 38.9531 31.1003 38.8771 31.025C38.8391 30.9497 38.8011 30.8744 38.8011 30.7991C38.8011 30.7239 38.7631 30.6486 38.7631 30.5732C38.7631 30.4227 38.8011 30.2721 38.8771 30.1591C38.9531 30.0462 39.067 29.9709 39.181 29.8956C39.295 29.8203 39.4469 29.7826 39.5989 29.745C39.7509 29.7073 39.9029 29.7073 40.0548 29.7073V29.5944C40.0548 29.4814 40.0168 29.4061 39.9788 29.3685C39.9408 29.3308 39.8269 29.2932 39.7129 29.2932C39.5989 29.2932 39.5229 29.2932 39.409 29.3308C39.295 29.3308 39.181 29.3685 39.105 29.4061L38.991 28.9544C39.143 28.8791 39.295 28.8414 39.447 28.8038C39.5989 28.7661 39.7129 28.7661 39.8269 28.7661C40.1308 28.7661 40.3588 28.8414 40.5487 28.9544C40.7007 29.0673 40.8147 29.2932 40.8147 29.5944V30.7239H41.0427V31.1756ZM40.0928 30.1214C40.0548 30.1214 39.9788 30.1214 39.9029 30.1591C39.8269 30.1591 39.7889 30.1968 39.7129 30.1968C39.6369 30.2344 39.5989 30.2721 39.5609 30.3097C39.5229 30.3474 39.4849 30.4227 39.4849 30.4979C39.4849 30.5732 39.4849 30.6486 39.5229 30.6862C39.5609 30.7239 39.5989 30.7615 39.6749 30.7615C39.7129 30.7615 39.7889 30.7615 39.8649 30.7239C39.9408 30.6862 39.9788 30.6486 40.0548 30.6109V30.1214H40.0928Z" fill="#6D6C6A"/>
<path d="M41.846 31.891H41.2381V30.6486L41.4661 30.6109C41.5041 30.5732 41.542 30.5356 41.58 30.4603C41.618 30.4227 41.656 30.3474 41.656 30.3097C41.656 30.2721 41.694 30.1591 41.732 30.0838C41.732 30.0085 41.77 29.8956 41.77 29.745L41.808 28.7661H43.5936V30.6109C43.6318 30.6109 43.6697 30.6109 43.7076 30.6109C43.7455 30.6109 43.7837 30.6109 43.8216 30.6109V31.8533H43.2136V31.138H41.846V31.891ZM42.4159 29.3308C42.4159 29.5191 42.3779 29.6697 42.3779 29.8203C42.3779 29.9709 42.3399 30.0838 42.3399 30.1968C42.3399 30.3097 42.3019 30.385 42.2639 30.4603C42.2259 30.5356 42.1879 30.6109 42.1499 30.6486H42.834V29.3308H42.4159Z" fill="#6D6C6A"/>
<path d="M45.5625 29.8217L45.1825 30.537L44.8408 31.2147H44.1569V28.8428H44.8408V30.2358H44.8787L45.0306 29.897L45.6004 28.8052H46.2846V31.1771H45.6004L45.5625 29.8217Z" fill="#6D6C6A"/>
<path d="M47.6895 31.2513C47.4994 31.2513 47.3096 31.2136 47.1955 31.1383C47.0436 31.063 46.9296 30.9877 46.8538 30.8748C46.7777 30.7618 46.7015 30.6112 46.6636 30.4606C46.6257 30.31 46.6257 30.1594 46.6257 29.9712C46.6257 29.8206 46.6257 29.67 46.6636 29.5194C46.7015 29.3688 46.7398 29.2182 46.8538 29.1053C46.9675 28.9923 47.0436 28.8794 47.1955 28.8041C47.3475 28.7288 47.4994 28.6911 47.7274 28.6911C47.9173 28.6911 48.1074 28.7288 48.2594 28.8041C48.4113 28.8794 48.5253 28.9547 48.6014 29.0676C48.6772 29.1806 48.7534 29.3311 48.7913 29.4818C48.8292 29.6324 48.8292 29.7829 48.8292 29.9336C48.8292 30.0841 48.8292 30.2347 48.7913 30.3853C48.7534 30.5359 48.7151 30.6865 48.6014 30.7995C48.4874 30.9124 48.4113 31.0254 48.2594 31.1006C48.1074 31.1759 47.8794 31.2513 47.6895 31.2513ZM47.6895 29.2559C47.6134 29.2559 47.5755 29.2559 47.5376 29.2935C47.4994 29.3311 47.4615 29.3688 47.4236 29.4441C47.3857 29.5194 47.3854 29.5947 47.3854 29.67C47.3854 29.7453 47.3854 29.8583 47.3854 29.9712C47.3854 30.2347 47.4236 30.423 47.4615 30.5359C47.4994 30.6865 47.5755 30.7242 47.7274 30.7242C47.8415 30.7242 47.9555 30.6489 47.9934 30.5359C48.0313 30.423 48.0695 30.1971 48.0695 29.9712C48.0695 29.8583 48.0695 29.7453 48.0695 29.67C48.0695 29.5947 48.0313 29.5194 48.0313 29.4441C47.9934 29.3688 47.9934 29.3311 47.9173 29.2935C47.8036 29.2559 47.7653 29.2559 47.6895 29.2559Z" fill="#6D6C6A"/>
<path d="M49.444 29.745H50.1278C50.1278 29.5944 50.0896 29.4438 50.0138 29.3685C49.9376 29.2932 49.8236 29.2555 49.7099 29.2555C49.6338 29.2555 49.5198 29.2556 49.444 29.2932C49.3678 29.2932 49.2917 29.3308 49.2159 29.3685L49.1019 28.9167C49.178 28.8791 49.2917 28.8414 49.4057 28.8037C49.5198 28.7661 49.6717 28.7661 49.8236 28.7661C50.2036 28.7661 50.5078 28.8791 50.6976 29.1049C50.8874 29.3308 50.9636 29.632 50.9636 30.0085C50.9636 30.1968 50.9257 30.385 50.8874 30.5356C50.8495 30.6862 50.7737 30.8368 50.6597 30.9497C50.5457 31.0627 50.4317 31.138 50.3176 31.2133C50.1657 31.2886 50.0138 31.3262 49.8236 31.3262C49.6717 31.3262 49.5198 31.3262 49.4057 31.2886C49.2917 31.2509 49.178 31.2133 49.0258 31.138L49.1398 30.6862C49.2538 30.7239 49.3678 30.7615 49.444 30.7615C49.5198 30.7615 49.6338 30.7991 49.7099 30.7991C49.8618 30.7991 49.9759 30.7615 50.0517 30.6486C50.1278 30.5356 50.1657 30.4227 50.1657 30.2721H49.4819V29.745H49.444Z" fill="#6D6C6A"/>
<path d="M52.3279 29.3702V29.7844C52.3279 30.0103 52.3279 30.1985 52.29 30.3491C52.2521 30.4997 52.2139 30.6503 52.1381 30.7632C52.062 30.8762 51.9862 30.9891 51.8721 31.0644C51.7581 31.1397 51.6441 31.2527 51.4921 31.328L51.1883 30.8386C51.3023 30.7632 51.3781 30.6879 51.416 30.6127C51.4921 30.5374 51.53 30.4621 51.5683 30.3868C51.6062 30.3114 51.6062 30.1985 51.6441 30.1232C51.6441 30.0103 51.6441 29.8973 51.6441 29.7467V28.7302H53.4679V31.1397H52.7458V29.2949H52.3279V29.3702Z" fill="#6D6C6A"/>
<path d="M54.6476 30.1968C54.6476 30.2721 54.6476 30.3474 54.6855 30.4227C54.6855 30.4979 54.7238 30.5356 54.7617 30.5732C54.7996 30.6109 54.8375 30.6486 54.9136 30.6862C54.9894 30.7239 55.0655 30.7239 55.1416 30.7239C55.2174 30.7239 55.2936 30.7239 55.4076 30.7239C55.5213 30.7239 55.6353 30.6862 55.7873 30.6109L55.9395 31.0627C55.7873 31.138 55.6736 31.1756 55.5213 31.2133C55.3694 31.2509 55.2174 31.2509 55.0655 31.2509C54.8375 31.2509 54.6476 31.2133 54.4957 31.138C54.3438 31.0627 54.2298 30.9874 54.1536 30.8744C54.0778 30.7615 54.0017 30.6109 53.9638 30.4603C53.9259 30.3097 53.9259 30.1591 53.9259 30.0085C53.9259 29.9332 53.9259 29.8579 53.9259 29.7826C53.9259 29.7073 53.9638 29.5944 53.9638 29.5191C54.0017 29.4061 54.0396 29.3308 54.0778 29.2555C54.1157 29.1802 54.1919 29.0673 54.2677 29.0296C54.3438 28.992 54.4578 28.9167 54.5715 28.8414C54.6855 28.8037 54.8375 28.7661 54.9894 28.7661C55.2553 28.7661 55.4455 28.8037 55.5595 28.9167C55.7115 28.992 55.7873 29.1049 55.8634 29.2555C55.9395 29.4061 55.9774 29.5567 55.9774 29.745C55.9774 29.9332 56.0153 30.0838 56.0153 30.2344H54.6476V30.1968ZM55.2936 29.8203C55.2936 29.745 55.2936 29.6697 55.2936 29.5944C55.2936 29.5191 55.2553 29.4438 55.2553 29.4061C55.2553 29.3685 55.2174 29.2932 55.1416 29.2932C55.1034 29.2556 55.0655 29.2555 54.9894 29.2555C54.9136 29.2555 54.8757 29.2556 54.8375 29.2932C54.7996 29.3308 54.7617 29.3685 54.7238 29.4061C54.6855 29.4438 54.6855 29.5191 54.6855 29.5944C54.6855 29.6697 54.6476 29.745 54.6476 29.8203H55.2936Z" fill="#6D6C6A"/>
<path d="M58.7113 28.8052L57.8756 29.897L58.7113 31.1771H57.8756L57.1917 30.01V31.1771H56.4697V28.8052H57.1917V29.8217L57.9135 28.8052H58.7113Z" fill="#6D6C6A"/>
<path d="M60.1182 31.1756H59.3965V29.3308H58.7885V28.7661H60.7263V29.3308H60.1182V31.1756Z" fill="#6D6C6A"/>
<path d="M61.7165 31.025V32.1922H60.9948V28.8038H61.6025L61.7165 29.0673L61.9445 28.9167C62.0207 28.8791 62.0586 28.8414 62.1344 28.8038C62.2105 28.7661 62.2484 28.7661 62.3245 28.7661C62.4764 28.7661 62.6284 28.8037 62.7045 28.8791C62.8185 28.9544 62.8943 29.0673 62.9322 29.1802C63.0084 29.2932 63.0463 29.4438 63.0463 29.5944C63.0845 29.745 63.0845 29.8956 63.0845 30.0462C63.0845 30.1968 63.0845 30.3474 63.0463 30.4603C63.0084 30.6109 62.9705 30.7239 62.8943 30.8744C62.8185 30.9874 62.7424 31.1003 62.6284 31.1756C62.5143 31.2509 62.4003 31.2886 62.2484 31.2886C62.1726 31.2886 62.0965 31.2886 62.0207 31.2509C61.9066 31.1756 61.8305 31.1003 61.7165 31.025ZM61.7165 30.6109C61.7547 30.6486 61.8305 30.6862 61.8684 30.6862C61.9445 30.7239 61.9824 30.7239 62.0207 30.7239C62.0965 30.7239 62.1344 30.6862 62.1726 30.6486C62.2105 30.6109 62.2484 30.5356 62.2484 30.4979C62.2866 30.4227 62.2866 30.3474 62.2866 30.2721C62.2866 30.1968 62.2866 30.0838 62.2866 30.0085C62.2866 29.7826 62.2484 29.5944 62.2105 29.4438C62.1726 29.3308 62.0965 29.2555 61.9824 29.2555C61.9445 29.2555 61.8684 29.2556 61.8305 29.2932C61.7926 29.3308 61.7165 29.3685 61.6786 29.4061V30.6109H61.7165Z" fill="#6D6C6A"/>
<path d="M64.4899 31.2513C64.2998 31.2513 64.1099 31.2136 63.9959 31.1383C63.844 31.063 63.7299 30.9877 63.6541 30.8748C63.578 30.7618 63.5019 30.6112 63.464 30.4606C63.4261 30.31 63.4261 30.1594 63.4261 29.9712C63.4261 29.8206 63.4261 29.67 63.464 29.5194C63.5019 29.3688 63.5401 29.2182 63.6541 29.1053C63.7678 28.9923 63.844 28.8794 63.9959 28.8041C64.1478 28.7288 64.2997 28.6911 64.5278 28.6911C64.7176 28.6911 64.9078 28.7288 65.0597 28.8041C65.2116 28.8794 65.3257 28.9547 65.4018 29.0676C65.4776 29.1806 65.5537 29.3311 65.5916 29.4818C65.6295 29.6324 65.6295 29.7829 65.6295 29.9336C65.6295 30.0841 65.6295 30.2347 65.5916 30.3853C65.5537 30.5359 65.5155 30.6865 65.4018 30.7995C65.2878 30.9124 65.2116 31.0254 65.0597 31.1006C64.9078 31.1759 64.7176 31.2513 64.4899 31.2513ZM64.5278 29.2559C64.4517 29.2559 64.4138 29.2559 64.3759 29.2935C64.338 29.3311 64.2998 29.3688 64.2619 29.4441C64.224 29.5194 64.224 29.5947 64.224 29.67C64.224 29.7453 64.224 29.8583 64.224 29.9712C64.224 30.2347 64.2618 30.423 64.2997 30.5359C64.338 30.6865 64.4138 30.7242 64.5657 30.7242C64.6797 30.7242 64.7938 30.6489 64.8317 30.5359C64.8699 30.423 64.9078 30.1971 64.9078 29.9712C64.9078 29.8583 64.9078 29.7453 64.9078 29.67C64.9078 29.5947 64.8699 29.5194 64.8699 29.4441C64.8317 29.3688 64.8317 29.3311 64.7559 29.2935C64.6418 29.2559 64.5657 29.2559 64.5278 29.2559Z" fill="#6D6C6A"/>
<path d="M67.2997 30.1968H66.692V31.1756H65.9699V28.7661H66.692V29.6697H67.2997V28.7661H68.0217V31.1756H67.2997V30.1968Z" fill="#6D6C6A"/>
<path d="M69.8818 29.8217L69.5018 30.537L69.16 31.2147H68.4762V28.8428H69.16V30.2358H69.1979L69.3499 29.897L69.92 28.8052H70.6038V31.1771H69.92L69.8818 29.8217Z" fill="#6D6C6A"/>
<path d="M73.2617 28.8052L72.4259 29.897L73.2617 31.1771H72.4259L71.7421 30.01V31.1771H71.02V28.8052H71.7421V29.8217L72.4638 28.8052H73.2617Z" fill="#6D6C6A"/>
<path d="M74.9006 29.8217L74.5206 30.537L74.1789 31.2147H73.4951V28.8428H74.1789V30.2358H74.2168L74.3687 29.897L74.9385 28.8052H75.6227V31.1771H74.9385L74.9006 29.8217Z" fill="#6D6C6A"/>
<path d="M37.7812 34.525L37.4013 35.2403L37.0594 35.918H36.3755V33.5461H37.0594V34.9391H37.0974L37.2493 34.6003L37.8192 33.5085H38.5031V35.8803H37.8192L37.7812 34.525Z" fill="#6D6C6A"/>
<path d="M41.7688 34.525L41.3889 35.2403L41.047 35.918H40.3631V33.5461H41.047V34.9391H41.085L41.2369 34.6003L41.8068 33.5085H42.4907V35.8804H41.8068L41.7688 34.525Z" fill="#6D6C6A"/>
<path d="M44.1992 34.9391H43.5911V35.918H42.8694V33.5085H43.5911V34.412H44.1992V33.5085H44.9209V35.918H44.1992V34.9391Z" fill="#6D6C6A"/>
<path d="M47.3518 32.4523V33.77L47.5416 33.6194C47.6178 33.5818 47.6557 33.5441 47.6936 33.5065C47.7318 33.4688 47.8076 33.4688 47.8458 33.4688C47.9977 33.4688 48.1497 33.5065 48.2255 33.5818C48.3395 33.6571 48.4156 33.77 48.4535 33.883C48.4914 33.9959 48.5675 34.1465 48.5675 34.2971C48.5675 34.4477 48.6054 34.5983 48.6054 34.7489C48.6054 34.8995 48.6054 35.0124 48.5675 35.163C48.5296 35.3136 48.4914 35.4266 48.4156 35.5772C48.3395 35.7278 48.2637 35.8031 48.1497 35.8784C48.0356 35.9537 47.9216 35.9913 47.7697 35.9913C47.6936 35.9913 47.6557 35.9913 47.5799 35.9537C47.5037 35.916 47.4276 35.8407 47.3139 35.7654V36.9325H46.6301V35.7654C46.516 35.8784 46.4399 35.916 46.3641 35.9537C46.288 35.9913 46.2119 35.9913 46.174 35.9913C46.022 35.9913 45.908 35.9537 45.794 35.8784C45.6799 35.8031 45.6042 35.7278 45.528 35.5772C45.4522 35.4266 45.414 35.3136 45.3761 35.163C45.3382 35.0124 45.3382 34.8619 45.3382 34.7112C45.3382 34.5606 45.3382 34.4101 45.3761 34.2594C45.414 34.1089 45.4522 33.9583 45.4901 33.8453C45.5663 33.7324 45.642 33.6194 45.7182 33.5441C45.8322 33.4688 45.9459 33.4312 46.0982 33.4312C46.1361 33.4312 46.2119 33.4312 46.2501 33.4688C46.3259 33.5065 46.3641 33.5441 46.402 33.5818L46.5918 33.7324V32.4147H47.3518V32.4523ZM46.6301 34.1089C46.5918 34.0712 46.5539 34.0336 46.516 33.9959C46.4778 33.9583 46.4399 33.9583 46.402 33.9583C46.288 33.9583 46.2119 34.0336 46.174 34.1465C46.1361 34.2971 46.0982 34.4477 46.0982 34.6736C46.0982 34.7866 46.0982 34.8619 46.0982 34.9371C46.0982 35.0124 46.1361 35.0877 46.1361 35.163C46.174 35.2383 46.174 35.276 46.2119 35.3136C46.2501 35.3513 46.288 35.3889 46.3259 35.3889C46.3641 35.3889 46.402 35.3889 46.4399 35.3513C46.4778 35.3136 46.516 35.3136 46.5539 35.276V34.1089H46.6301ZM47.3518 35.3136C47.3897 35.3513 47.4276 35.3889 47.4658 35.3889C47.5037 35.4266 47.5416 35.4266 47.5799 35.4266C47.6178 35.4266 47.6557 35.4266 47.6936 35.3513C47.7318 35.3136 47.7697 35.276 47.7697 35.2007C47.8076 35.1254 47.8076 35.0501 47.8076 34.9748C47.8076 34.8995 47.8076 34.7866 47.8076 34.7112C47.8076 34.4854 47.7697 34.2971 47.7318 34.1842C47.6936 34.0336 47.6178 33.9959 47.5037 33.9959C47.4276 33.9959 47.3518 34.0336 47.2757 34.1089V35.3136H47.3518Z" fill="#6D6C6A"/>
<path d="M50.1958 35.9561C50.006 35.9561 49.8159 35.9184 49.7018 35.8431C49.5499 35.7678 49.4359 35.6925 49.3601 35.5796C49.2839 35.4666 49.2081 35.316 49.1699 35.1654C49.132 35.0149 49.132 34.8642 49.132 34.676C49.132 34.5254 49.132 34.3748 49.1699 34.2242C49.2081 34.0736 49.246 33.923 49.3601 33.8101C49.4741 33.6971 49.5499 33.5842 49.7018 33.5089C49.8541 33.4336 50.006 33.3959 50.2337 33.3959C50.4239 33.3959 50.6137 33.4336 50.7656 33.5089C50.9179 33.5842 51.0316 33.6595 51.1077 33.7724C51.1835 33.8854 51.2597 34.036 51.2976 34.1866C51.3358 34.3372 51.3358 34.4878 51.3358 34.6384C51.3358 34.7889 51.3358 34.9395 51.2976 35.0902C51.2597 35.2407 51.2218 35.3914 51.1077 35.5043C50.9937 35.6172 50.9179 35.7302 50.7656 35.8055C50.6137 35.8808 50.386 35.9561 50.1958 35.9561ZM50.1958 33.9607C50.12 33.9607 50.0818 33.9607 50.0439 33.9983C50.006 34.036 49.9678 34.0736 49.9299 34.1489C49.892 34.2242 49.892 34.2995 49.892 34.3748C49.892 34.4501 49.892 34.5631 49.892 34.676C49.892 34.9395 49.9299 35.1278 49.9678 35.2407C50.006 35.3914 50.0818 35.429 50.2337 35.429C50.3478 35.429 50.4618 35.3537 50.4997 35.2407C50.5379 35.1278 50.5758 34.9019 50.5758 34.676C50.5758 34.5631 50.5758 34.4501 50.5758 34.3748C50.5758 34.2995 50.5379 34.2242 50.5379 34.1489C50.4997 34.0736 50.4997 34.036 50.4239 33.9983C50.3099 33.9607 50.272 33.9607 50.1958 33.9607Z" fill="#6D6C6A"/>
<path d="M52.4038 35.733V36.9001H51.6821V33.5117H52.2898L52.4038 33.7752L52.6319 33.6247C52.7077 33.587 52.7459 33.5494 52.8217 33.5117C52.8978 33.4741 52.9357 33.4741 53.0118 33.4741C53.1638 33.4741 53.3157 33.5117 53.3918 33.587C53.5055 33.6623 53.5816 33.7752 53.6195 33.8882C53.6957 34.0012 53.7336 34.1517 53.7336 34.3024C53.7715 34.4529 53.7715 34.6035 53.7715 34.7541C53.7715 34.9047 53.7715 35.0553 53.7336 35.1683C53.6957 35.3189 53.6578 35.4318 53.5816 35.5824C53.5055 35.6954 53.4297 35.8083 53.3157 35.8836C53.2017 35.9589 53.0876 35.9965 52.9357 35.9965C52.8599 35.9965 52.7838 35.9965 52.7077 35.9589C52.6319 35.8836 52.5178 35.846 52.4038 35.733ZM52.4038 35.3189C52.4417 35.3565 52.5178 35.3942 52.5557 35.3942C52.6319 35.4318 52.6698 35.4318 52.7077 35.4318C52.7838 35.4318 52.8217 35.3942 52.8599 35.3565C52.8978 35.3189 52.9357 35.2436 52.9357 35.2059C52.9736 35.1306 52.9736 35.0553 52.9736 34.98C52.9736 34.9047 52.9736 34.7918 52.9736 34.7165C52.9736 34.4906 52.9357 34.3024 52.8978 34.1517C52.8599 34.0388 52.7838 33.9635 52.6698 33.9635C52.6319 33.9635 52.5557 33.9635 52.5178 34.0012C52.4799 34.0388 52.4038 34.0764 52.3659 34.1141V35.3189H52.4038Z" fill="#6D6C6A"/>
<path d="M55.7462 35.3907H55.2901C55.2143 35.2401 55.1381 35.1272 55.1002 34.9766C55.0241 34.826 54.9483 34.6754 54.8722 34.5624V35.9178H54.1884V33.5459H54.9483L55.5181 34.6754C55.6321 34.4871 55.7083 34.2989 55.7841 34.1106C55.8602 33.9224 55.9742 33.7341 56.05 33.5459H56.81V35.9178H56.1262V34.5624L55.7462 35.3907Z" fill="#6D6C6A"/>
<path d="M59.5867 35.8836C59.4727 35.9212 59.3969 35.9212 59.2829 35.9589C59.1689 35.9589 59.0931 35.9965 59.0169 35.9965C58.9029 35.9965 58.865 35.9965 58.7889 35.9589C58.751 35.9212 58.7131 35.8836 58.6752 35.8083L58.637 35.6954L58.371 35.846C58.2952 35.8836 58.257 35.9212 58.1812 35.9589C58.105 35.9965 58.0672 35.9965 58.0293 35.9965C57.8773 35.9965 57.7251 35.9589 57.6493 35.9212C57.5731 35.8836 57.4973 35.8083 57.4212 35.733C57.3833 35.6577 57.3454 35.5824 57.3454 35.5071C57.3454 35.4318 57.3072 35.3565 57.3072 35.2812C57.3072 35.1306 57.3454 34.98 57.4212 34.8671C57.4973 34.7541 57.6114 34.6789 57.7251 34.6035C57.8391 34.5282 57.991 34.4906 58.1433 34.4529C58.2952 34.4153 58.4471 34.4153 58.5991 34.4153V34.3024C58.5991 34.1894 58.5612 34.1141 58.5229 34.0765C58.485 34.0388 58.371 34.0012 58.257 34.0012C58.1433 34.0012 58.0671 34.0012 57.9531 34.0388C57.8391 34.0388 57.7633 34.0764 57.6493 34.1141L57.5352 33.6623C57.6872 33.587 57.8391 33.5494 57.991 33.5117C58.1433 33.4741 58.257 33.4741 58.371 33.4741C58.6752 33.4741 58.9029 33.5494 59.0931 33.6623C59.245 33.7753 59.359 34.0012 59.359 34.3024V35.4318H59.5867V35.8836ZM58.637 34.8294C58.5991 34.8294 58.5229 34.8294 58.4471 34.8671C58.371 34.8671 58.3331 34.9047 58.257 34.9047C58.1812 34.9424 58.1433 34.98 58.105 35.0177C58.0671 35.0553 58.0293 35.1306 58.0293 35.2059C58.0293 35.2812 58.0293 35.3565 58.0672 35.3942C58.1051 35.4318 58.1433 35.4695 58.2191 35.4695C58.257 35.4695 58.3331 35.4695 58.4092 35.4318C58.485 35.3942 58.5229 35.3565 58.5991 35.3189V34.8294H58.637Z" fill="#6D6C6A"/>
<path d="M60.6411 35.352H61.3249C61.3249 35.0508 61.3249 34.7496 61.3249 34.4108C61.3249 34.1095 61.3249 33.8083 61.3249 33.4695H62.0467C62.0467 33.7707 62.0467 34.0719 62.0467 34.3731C62.0467 34.6743 62.0467 34.9755 62.0467 35.2767H62.3126V36.5191H61.7428L61.7049 35.8038H59.9573V33.4319H60.679V35.352H60.6411Z" fill="#6D6C6A"/>
<path d="M64.1007 34.525L63.7207 35.2403L63.379 35.918H62.6948V33.5461H63.379V34.9391H63.4169L63.5688 34.6003L64.1386 33.5085H64.8225V35.8804H64.1386L64.1007 34.525Z" fill="#6D6C6A"/>
<path d="M66.2333 35.9561C66.0435 35.9561 65.8537 35.9184 65.7397 35.8431C65.5877 35.7678 65.4737 35.6925 65.3976 35.5796C65.3218 35.4666 65.2457 35.316 65.2078 35.1654C65.1699 35.0149 65.1699 34.8642 65.1699 34.676C65.1699 34.5254 65.1699 34.3748 65.2078 34.2242C65.2457 34.0736 65.2836 33.923 65.3976 33.8101C65.5116 33.6971 65.5877 33.5842 65.7397 33.5089C65.8916 33.4336 66.0435 33.3959 66.2716 33.3959C66.4614 33.3959 66.6516 33.4336 66.8035 33.5089C66.9554 33.5842 67.0694 33.6595 67.1452 33.7724C67.2214 33.8854 67.2972 34.036 67.3354 34.1866C67.3733 34.3372 67.3733 34.4878 67.3733 34.6384C67.3733 34.7889 67.3733 34.9395 67.3354 35.0902C67.2972 35.2407 67.2593 35.3914 67.1452 35.5043C67.0312 35.6172 66.9554 35.7302 66.8035 35.8055C66.6516 35.8808 66.4614 35.9561 66.2333 35.9561ZM66.2333 33.9607C66.1575 33.9607 66.1196 33.9607 66.0814 33.9983C66.0435 34.036 66.0056 34.0736 65.9677 34.1489C65.9295 34.2242 65.9295 34.2995 65.9295 34.3748C65.9295 34.4501 65.9295 34.5631 65.9295 34.676C65.9295 34.9395 65.9674 35.1278 66.0056 35.2407C66.0435 35.3914 66.1197 35.429 66.2716 35.429C66.3856 35.429 66.4993 35.3537 66.5375 35.2407C66.5754 35.1278 66.6133 34.9019 66.6133 34.676C66.6133 34.5631 66.6133 34.4501 66.6133 34.3748C66.6133 34.2995 66.5754 34.2242 66.5754 34.1489C66.5375 34.0736 66.5375 34.036 66.4614 33.9983C66.3856 33.9607 66.3095 33.9607 66.2333 33.9607Z" fill="#6D6C6A"/>
<path d="M69.0439 34.9391H68.3979V35.918H67.6762V33.5085H68.3979V34.412H69.006V33.5085H69.7277V35.918H69.006V34.9391H69.0439Z" fill="#6D6C6A"/>
<path d="M71.5497 34.9391H70.9417V35.918H70.22V33.5085H70.9417V34.412H71.5497V33.5085H72.2715V35.918H71.5497V34.9391Z" fill="#6D6C6A"/>
<path d="M72.7325 33.5085H73.4543V34.3744H73.9483C74.0244 34.3744 74.1384 34.3744 74.2521 34.412C74.3662 34.4497 74.4423 34.4873 74.5181 34.525C74.5942 34.6003 74.67 34.6756 74.7082 34.7509C74.7461 34.8262 74.7841 34.9768 74.7841 35.1274C74.7841 35.278 74.7461 35.3909 74.7082 35.4662C74.67 35.5791 74.5942 35.6544 74.5181 35.6921C74.4423 35.7674 74.3283 35.8051 74.2521 35.8427C74.1384 35.8804 74.0623 35.8804 73.9483 35.8804H72.7325V33.5085ZM73.7964 35.3909C73.8343 35.3909 73.9104 35.3533 73.9862 35.3156C74.0623 35.278 74.0623 35.2027 74.0623 35.1274C74.0623 35.0521 74.0244 34.9768 73.9862 34.9391C73.9104 34.9015 73.8725 34.9015 73.7585 34.9015H73.4543V35.3909H73.7964ZM75.6959 33.5085V35.918H74.9742V33.5085H75.6959Z" fill="#6D6C6A"/>
<path d="M77.2488 35.1286C77.2109 35.2039 77.173 35.2415 77.1351 35.3169C77.0968 35.3545 77.0589 35.4298 77.021 35.5051C76.9828 35.5804 76.9449 35.6557 76.907 35.731C76.8691 35.8063 76.8309 35.8816 76.793 35.9569H75.9951L76.8309 34.7521L76.1091 33.585H76.8691L77.2488 34.3003C77.3249 34.1874 77.3628 34.0744 77.4389 33.9238C77.5147 33.7732 77.5529 33.6979 77.6287 33.585H78.4266L77.667 34.7144C77.7807 34.9404 77.9326 35.1286 78.0466 35.3545C78.1607 35.5804 78.3126 35.7686 78.4266 35.9945H77.667C77.6287 35.9192 77.5908 35.8816 77.5529 35.8063C77.5147 35.731 77.4768 35.6557 77.4389 35.618C77.401 35.5427 77.3628 35.4674 77.3249 35.4298C77.3628 35.2415 77.3249 35.1662 77.2488 35.1286Z" fill="#6D6C6A"/>
<path d="M37.5177 40.8525H36.7959V39.0077H36.188V38.443H38.1256V39.0077H37.5177V40.8525Z" fill="#6D6C6A"/>
<path d="M39.1036 39.8736C39.1036 39.9489 39.1036 40.0242 39.1416 40.0995C39.1416 40.1748 39.1796 40.2125 39.2176 40.2501C39.2556 40.2878 39.2936 40.3254 39.3696 40.3631C39.4456 40.4007 39.5216 40.4007 39.5975 40.4007C39.6735 40.4007 39.7495 40.4007 39.8635 40.4007C39.9775 40.4007 40.0915 40.3631 40.2435 40.2878L40.3954 40.7396C40.2435 40.8149 40.1295 40.8525 39.9775 40.8902C39.8255 40.9278 39.6735 40.9278 39.5216 40.9278C39.2936 40.9278 39.1036 40.8902 38.9517 40.8149C38.7997 40.7396 38.6857 40.6643 38.6097 40.5513C38.5338 40.4384 38.4578 40.2878 38.4198 40.1372C38.3818 39.9866 38.3818 39.836 38.3818 39.6854C38.3818 39.6101 38.3818 39.5348 38.3818 39.4595C38.3818 39.3842 38.4198 39.2713 38.4198 39.196C38.4578 39.083 38.4958 39.0077 38.5338 38.9324C38.5718 38.8571 38.6477 38.7442 38.7237 38.7065C38.7997 38.6312 38.9137 38.5936 39.0277 38.5183C39.1416 38.4806 39.2936 38.443 39.4456 38.443C39.7115 38.443 39.9015 38.4806 40.0155 38.5936C40.1675 38.6689 40.2435 38.7818 40.3194 38.9324C40.3954 39.083 40.4334 39.2336 40.4334 39.4219C40.4334 39.6101 40.4714 39.7607 40.4714 39.9113H39.1036V39.8736ZM39.7115 39.4971C39.7115 39.4219 39.7115 39.3466 39.7115 39.2713C39.7115 39.196 39.6735 39.1206 39.6735 39.083C39.6735 39.0454 39.6355 38.9701 39.5596 38.9701C39.5216 38.9324 39.4836 38.9324 39.4076 38.9324C39.3316 38.9324 39.2936 38.9324 39.2556 38.9701C39.2176 39.0077 39.1796 39.0454 39.1416 39.083C39.1036 39.1206 39.1036 39.196 39.1036 39.2713C39.1036 39.3466 39.0657 39.4219 39.0657 39.4971H39.7115Z" fill="#6D6C6A"/>
<path d="M41.9169 40.099C41.8789 40.1743 41.8409 40.212 41.8029 40.2873C41.7649 40.325 41.7269 40.4002 41.6889 40.4755C41.6509 40.5508 41.6129 40.6261 41.5749 40.7014C41.5369 40.7767 41.4989 40.852 41.4609 40.9273H40.6631L41.4989 39.7225L40.7771 38.5555H41.5369L41.9169 39.2708C41.9929 39.1578 42.0308 39.0449 42.1068 38.8943C42.1828 38.7437 42.2208 38.6684 42.2968 38.5555H43.0945L42.3348 39.6849C42.4488 39.9108 42.6007 40.099 42.7146 40.325C42.8286 40.5508 42.9805 40.7391 43.0945 40.965H42.3348C42.2968 40.8897 42.2588 40.852 42.2208 40.7767C42.1828 40.7014 42.1448 40.6261 42.1068 40.5885C42.0688 40.5132 42.0308 40.4379 41.9929 40.4002C41.9549 40.3626 41.9549 40.1367 41.9169 40.099Z" fill="#6D6C6A"/>
<path d="M44.7308 39.8736H44.0849V40.8525H43.3632V38.443H44.0849V39.3466H44.6929V38.443H45.4147V40.8525H44.6929V39.8736H44.7308Z" fill="#6D6C6A"/>
<path d="M46.9333 40.9281C46.7434 40.9281 46.5533 40.8904 46.4393 40.8151C46.2873 40.7398 46.1733 40.6646 46.0975 40.5516C46.0214 40.4386 45.9456 40.2881 45.9073 40.1374C45.8694 39.9869 45.8694 39.8363 45.8694 39.648C45.8694 39.4974 45.8694 39.3468 45.9073 39.1962C45.9456 39.0456 45.9835 38.8951 46.0975 38.7821C46.2115 38.6691 46.2873 38.5562 46.4393 38.4809C46.5912 38.4056 46.7434 38.368 46.9712 38.368C47.1613 38.368 47.3511 38.4056 47.5031 38.4809C47.655 38.5562 47.769 38.6315 47.8452 38.7444C47.921 38.8574 47.9971 39.008 48.035 39.1586C48.0732 39.3092 48.0732 39.4598 48.0732 39.6104C48.0732 39.761 48.0732 39.9116 48.035 40.0622C47.9971 40.2128 47.9592 40.3634 47.8452 40.4763C47.7311 40.5893 47.655 40.7022 47.5031 40.7775C47.3511 40.8528 47.1613 40.9281 46.9333 40.9281ZM46.9333 38.9327C46.8571 38.9327 46.8192 38.9327 46.7813 38.9703C46.7434 39.008 46.7052 39.0456 46.6673 39.1209C46.6294 39.1962 46.6294 39.2716 46.6294 39.3468C46.6294 39.4221 46.6294 39.5351 46.6294 39.648C46.6294 39.9116 46.6673 40.0998 46.7052 40.2128C46.7434 40.3634 46.8192 40.401 46.9712 40.401C47.0852 40.401 47.1992 40.3257 47.2371 40.2128C47.2753 40.0998 47.3132 39.8739 47.3132 39.648C47.3132 39.5351 47.3132 39.4221 47.3132 39.3468C47.3132 39.2716 47.2753 39.1962 47.2753 39.1209C47.2371 39.0456 47.2371 39.008 47.1613 38.9703C47.0852 38.9327 47.0094 38.9327 46.9333 38.9327Z" fill="#6D6C6A"/>
<path d="M49.2907 39.0424V39.4565C49.2907 39.6824 49.2907 39.8707 49.2525 40.0213C49.2146 40.1718 49.1767 40.3225 49.1005 40.4354C49.0247 40.5483 48.9486 40.6613 48.8346 40.7366C48.7206 40.8119 48.6069 40.9248 48.4546 41.0001L48.1508 40.5107C48.2648 40.4354 48.3409 40.3601 48.3788 40.2848C48.4546 40.2095 48.4928 40.1342 48.5307 40.0589C48.5686 39.9836 48.5686 39.8707 48.6069 39.7953C48.6069 39.6824 48.6069 39.5695 48.6069 39.4189V38.4023H50.4303V40.8119H49.7844V38.9671H49.2907V39.0424Z" fill="#6D6C6A"/>
<path d="M51.9459 40.9281C51.7557 40.9281 51.5659 40.8904 51.4519 40.8151C51.3 40.7398 51.1859 40.6646 51.1101 40.5516C51.034 40.4386 50.9579 40.2881 50.92 40.1374C50.8821 39.9869 50.8821 39.8363 50.8821 39.648C50.8821 39.4974 50.8821 39.3468 50.92 39.1962C50.9579 39.0456 50.9961 38.8951 51.1101 38.7821C51.2238 38.6691 51.3 38.5562 51.4519 38.4809C51.6038 38.4056 51.7557 38.368 51.9838 38.368C52.1739 38.368 52.3638 38.4056 52.5157 38.4809C52.6676 38.5562 52.7817 38.6315 52.8578 38.7444C52.9336 38.8574 53.0097 39.008 53.0476 39.1586C53.0855 39.3092 53.0855 39.4598 53.0855 39.6104C53.0855 39.761 53.0855 39.9116 53.0476 40.0622C53.0097 40.2128 52.9715 40.3634 52.8578 40.4763C52.7438 40.5893 52.6676 40.7022 52.5157 40.7775C52.3638 40.8528 52.1736 40.9281 51.9459 40.9281ZM51.9459 38.9327C51.8698 38.9327 51.8319 38.9327 51.794 38.9703C51.7557 39.008 51.7178 39.0456 51.6799 39.1209C51.642 39.1962 51.642 39.2716 51.642 39.3468C51.642 39.4221 51.642 39.5351 51.642 39.648C51.642 39.9116 51.6799 40.0998 51.7178 40.2128C51.7557 40.3634 51.8319 40.401 51.9838 40.401C52.0978 40.401 52.2119 40.3257 52.2498 40.2128C52.2876 40.0998 52.3259 39.8739 52.3259 39.648C52.3259 39.5351 52.3259 39.4221 52.3259 39.3468C52.3259 39.2716 52.2876 39.1962 52.2876 39.1209C52.2497 39.0456 52.2497 39.008 52.1739 38.9703C52.0978 38.9327 52.0217 38.9327 51.9459 38.9327Z" fill="#6D6C6A"/>
<path d="M53.3884 38.4773H55.136V39.0421H54.1104V40.8868H53.3884V38.4773Z" fill="#6D6C6A"/>
<path d="M56.8064 39.4938L56.4265 40.2092L56.0847 40.8868H55.4009V38.515H56.0847V39.908H56.1226L56.2745 39.5691L56.8443 38.4773H57.5282V40.8492H56.8443L56.8064 39.4938Z" fill="#6D6C6A"/>
<path d="M59.319 39.498L58.9394 40.2133L58.5973 40.891H57.9135V38.5192H58.5973V39.9122H58.6352L58.7871 39.5733L59.3572 38.4815H60.0411V40.8534H59.3572L59.319 39.498ZM59.0152 37.8415C59.0531 37.8415 59.1292 37.8415 59.1671 37.8038C59.2053 37.7662 59.2432 37.7662 59.2811 37.6909C59.319 37.6156 59.3572 37.6156 59.3572 37.5779C59.3951 37.5403 59.3951 37.465 59.3951 37.4273H59.813C59.813 37.5403 59.813 37.6156 59.7751 37.7285C59.7372 37.8415 59.699 37.9167 59.6232 37.992C59.5471 38.0674 59.4713 38.1427 59.3951 38.1803C59.2811 38.218 59.1671 38.2556 59.0531 38.2556C58.9394 38.2556 58.8253 38.218 58.7113 38.1803C58.5973 38.1427 58.5215 38.0674 58.4454 37.992C58.3692 37.9167 58.3313 37.8038 58.2934 37.7285C58.2555 37.6156 58.2555 37.5403 58.2555 37.4273H58.6734C58.6734 37.5403 58.7113 37.6156 58.7871 37.6909C58.8253 37.8038 58.9011 37.8415 59.0152 37.8415Z" fill="#6D6C6A"/>
<path d="M66.3824 40.8507V37.3117H67.5602C68.016 37.3117 68.282 37.3117 68.4339 37.3493C68.624 37.3869 68.8139 37.4999 68.9658 37.6881C69.1177 37.8764 69.156 38.1023 69.156 38.3658C69.156 38.5917 69.1177 38.78 69.0419 38.9306C68.9658 39.0812 68.8518 39.1941 68.7381 39.2694C68.624 39.3447 68.4721 39.42 68.3581 39.42C68.1679 39.4576 67.9402 39.4576 67.5981 39.4576H67.1423V40.813H66.3824V40.8507ZM67.1041 37.9141V38.9306H67.4841C67.7883 38.9306 67.9781 38.9306 68.0542 38.8929C68.1679 38.8553 68.2441 38.78 68.282 38.7047C68.3199 38.6294 68.3581 38.5164 68.3581 38.4411C68.3581 38.3282 68.3199 38.2152 68.2441 38.1023C68.1679 38.027 68.0539 37.9517 67.9402 37.9517C67.8641 37.9517 67.6743 37.9141 67.4083 37.9141H67.1041Z" fill="#6D6C6A"/>
<path d="M70.4463 40.8507V37.9141H69.3824V37.3117H72.2321V37.9141H71.1683V40.8507H70.4463Z" fill="#6D6C6A"/>
<path d="M74.7808 40.4365V40.8507H74.0588V40.4365C73.489 40.3989 73.0711 40.2859 72.843 40.0224C72.615 39.7589 72.5013 39.42 72.5013 39.0435C72.5013 38.6294 72.615 38.2905 72.8809 38.0646C73.109 37.8011 73.5269 37.6881 74.0967 37.6505V37.3117H74.8187V37.6505C75.3885 37.6881 75.8064 37.8011 76.0345 38.0646C76.2625 38.3282 76.3766 38.6294 76.3766 39.0435C76.3766 39.42 76.2625 39.7589 76.0345 40.0224C75.7685 40.2859 75.3506 40.4365 74.7808 40.4365ZM74.0588 39.8718V38.2905C73.7549 38.2905 73.5269 38.3658 73.4128 38.4788C73.2988 38.5917 73.223 38.8176 73.223 39.0812C73.1851 39.6082 73.489 39.8718 74.0588 39.8718ZM74.7808 39.8718C74.9707 39.8718 75.1226 39.8341 75.2745 39.7588C75.4264 39.6836 75.5026 39.6082 75.5787 39.4953C75.6545 39.3824 75.6545 39.2318 75.6545 39.0435C75.6545 38.5164 75.3506 38.2905 74.7808 38.2905V39.8718Z" fill="#6D6C6A"/>
<path d="M64.5218 39.3055H61.4823V39.7186H64.5218V39.3055Z" fill="#6D6C6A"/>
</svg>
