<svg width="325" height="224" viewBox="0 0 325 224" fill="none" xmlns="http://www.w3.org/2000/svg">
<rect width="325" height="224" rx="13" fill="#F0F0F0"/>
<path d="M125 151.5C125 151.5 138 133 163 133C188 133 201 151.5 201 151.5" stroke="#6D6C6A" stroke-width="14" stroke-linecap="round"/>
<path d="M132 88C132 96.2843 125.284 103 117 103C108.716 103 102 96.2843 102 88C102 79.7157 108.716 73 117 73C125.284 73 132 79.7157 132 88Z" fill="#6D6C6A"/>
<path d="M223 88C223 96.2843 216.284 103 208 103C199.716 103 193 96.2843 193 88C193 79.7157 199.716 73 208 73C216.284 73 223 79.7157 223 88Z" fill="#6D6C6A"/>
</svg>
