<svg width="55" height="45" viewBox="0 0 55 45" fill="none" xmlns="http://www.w3.org/2000/svg">
<path d="M48.4068 40.4711C49.335 37.623 53.6839 9.23851 54.2215 3.64543C54.3839 1.95149 53.8485 0.825848 52.7997 0.32337C51.5314 -0.286625 49.6531 0.0183764 47.4743 0.803909C44.4857 1.88127 6.27987 18.1032 4.07248 19.0423C1.97919 19.931 0 20.9008 0 22.3051C0 23.2925 0.585858 23.8477 2.20081 24.4247C3.88159 25.0238 8.11425 26.3074 10.6135 26.9964C13.0205 27.6612 15.7611 27.0841 17.2971 26.1297C18.9252 25.1181 37.7144 12.5452 39.0638 11.4437C40.4111 10.3422 41.4862 11.7531 40.3847 12.8568C39.2832 13.9583 26.3856 26.4764 24.685 28.2098C22.6203 30.3141 24.086 32.4951 25.4706 33.3684C27.0526 34.3646 38.4297 41.9961 40.1434 43.2205C41.857 44.4449 43.5949 45 45.1857 45C46.7765 45 47.6147 42.9045 48.4068 40.4711Z" fill="#F0F0F0"/>
</svg>
