<svg width="58" height="33" viewBox="0 0 58 33" fill="none" xmlns="http://www.w3.org/2000/svg">
<path d="M32.3974 0.421234C32.7969 0.639156 33.2873 1.075 33.487 1.42004C33.8321 2.00117 33.8502 2.30989 33.7957 7.66712C33.7231 14.7496 33.9047 15.7484 35.2667 15.7484C35.7026 15.7484 36.0113 15.5486 36.6287 14.8767C38.9714 12.4069 41.4412 8.46617 43.1301 4.54358C43.6749 3.25422 44.3286 2.01933 44.5829 1.76508L45.0187 1.31108H50.8118C56.4233 1.31108 56.623 1.32924 57.1315 1.69244C58.5117 2.70941 57.531 5.01575 53.2452 10.8815C51.9922 12.6067 50.4667 14.6769 49.8856 15.476C48.6326 17.2193 48.1786 18.3634 48.4691 19.1262C48.5781 19.4167 50.0491 21.033 51.7198 22.74C54.6981 25.7728 55.7332 26.9895 57.077 29.0234C58.1848 30.7123 57.9487 32.1106 56.4414 32.7099C55.8603 32.946 54.8978 33.0005 51.1387 33.0005C44.7826 33.0005 44.5829 32.9279 41.4775 29.7135C38.2813 26.372 37.4278 25.5912 36.7922 25.3914C36.0476 25.1372 35.3575 25.3551 34.958 25.9544C34.6311 26.4628 34.2134 28.0791 33.9592 29.8769C33.5233 32.7099 33.1601 32.8915 28.6746 32.7644C25.9869 32.6918 25.2423 32.601 23.7895 32.2014C19.3766 30.9666 15.3269 28.2244 12.2034 24.32C8.44423 19.6528 5.15724 14.1866 1.70682 6.84992C-0.0365535 3.14525 -0.327115 2.09197 0.308489 1.529C0.635371 1.22028 1.05305 1.20212 5.64756 1.2566L10.6416 1.31108L11.3135 1.81957C11.6767 2.11013 12.1489 2.69125 12.3305 3.09077C15.7809 10.8088 19.2313 15.93 20.9747 15.93C22.137 15.93 22.5546 13.9324 22.4638 8.66593C22.3912 4.3983 22.2641 3.81718 21.3016 3.05445C21.0292 2.83653 20.4481 2.56413 19.9941 2.45517C19.5582 2.34621 19.1587 2.14644 19.1042 2.01932C18.9226 1.51084 20.0485 0.475712 21.1926 0.112511C21.465 0.0398712 23.9348 -0.0146065 26.677 0.0035553C31.3623 0.039875 31.7255 0.058033 32.3974 0.421234Z" fill="#6D6C6A"/>
</svg>
